# xmcd
#
# Track frame offsets: 
#        150
#        15445
#        35414
#        50050
#        62669
#        80118
#        93561
#        105082
#        117875
#        128609
#        140351
#        158006
#        170897
#        185366
#        196997
#        209349
#        228333
#        240134
#        255873
#        273810
#        287915
#        297590
#        305873
#        322639
#        340423
#
# Disc length: 4719 seconds
#
# Revision: 0
# Processed by: cddbd v1.5.2PL0 Copyright (c) Steve Scherf et al.
# Submitted via: ExactAudioCopy v0.95a5
#
DISCID=5c126d19
DTITLE=Joe Dassin - Неизвестное название
DYEAR=2005
DGENRE=Blues
TTITLE0=Et Si Tu N'Existais Pas
TTITLE1=L'ete Indien
TTITLE2=Salut
TTITLE3=A Toi
TTITLE4=Il Etait Une Fois Nous Deux
TTITLE5=L'Albatros
TTITLE6=Taka Takata
TTITLE7=Ma Musique
TTITLE8=L'Amerique
TTITLE9=Les Champs-Elysees
TTITLE10=Le Cafe Des 3 Colombers
TTITLE11=Guantanamera
TTITLE12=Si Tu T'Appelles Melancolie
TTITLE13=Siffler Sur La Colline
TTITLE14=La Demoiselle de Deshonneur
TTITLE15=The Guitar Don't Lie
TTITLE16=Nobody Knows You
TTITLE17=Le Dernier Slow
TTITLE18=Salut Les Amoureux
TTITLE19=L`equipe A Jojo
TTITLE20=La Fleur Aux Dents
TTITLE21=Il Faut Naitre A Monaco
TTITLE22=Dans Les Yeux D'уmilie
TTITLE23=Cecilia
TTITLE24=Ca Va Pas Changer Le Monde
EXTD=
EXTT0=
EXTT1=
EXTT2=
EXTT3=
EXTT4=
EXTT5=
EXTT6=
EXTT7=
EXTT8=
EXTT9=
EXTT10=
EXTT11=
EXTT12=
EXTT13=
EXTT14=
EXTT15=
EXTT16=
EXTT17=
EXTT18=
EXTT19=
EXTT20=
EXTT21=
EXTT22=
EXTT23=
EXTT24=
PLAYORDER=
